# xmcd
#
# Track frame offsets: 
#        150
#        20273
#        48634
#        71419
#        83986
#        101882
#        123419
#        135835
#        157306
#        174000
#        190727
#        207030
#        223952
#        245474
#        261069
#        277644
#        297908
#        319035
#        333816
#
# Disc length: 4672 seconds
#
# Revision: 0
# Processed by: cddbd v1.5.2PL0 Copyright (c) Steve Scherf et al.
# Submitted via: ExactAudioCopy v0.99pb2
#
DISCID=0d123e13
DTITLE=Gregg Allman - The Solo Years 1973-1997: One More Silver Dollar
DYEAR=2009
DGENRE=Blues
TTITLE0=Midnight Rider
TTITLE1=Queen of Hearts
TTITLE2=Don't Mess Up a Good Thing [live]
TTITLE3=Please Call Home
TTITLE4=These Days
TTITLE5=Feel So Bad [live]
TTITLE6=Two Steps from the Blues
TTITLE7=Come and Go Blues
TTITLE8=Let This Be a Lesson to Ya'
TTITLE9=Cryin' Shame
TTITLE10=Sweet Feelin
TTITLE11=I'm No Angel
TTITLE12=Lead Me On
TTITLE13=Demons
TTITLE14=Before the Bullets Fly
TTITLE15=Slip Away
TTITLE16=Whipping Post
TTITLE17=The Dark End of the Street
TTITLE18=Memphis in the Meantime
EXTD=
EXTT0=
EXTT1=
EXTT2=
EXTT3=
EXTT4=
EXTT5=
EXTT6=
EXTT7=
EXTT8=
EXTT9=
EXTT10=
EXTT11=
EXTT12=
EXTT13=
EXTT14=
EXTT15=
EXTT16=
EXTT17=
EXTT18=
PLAYORDER=
